<?xml version="1.0" encoding="utf-8"?>
<!-- Generator: Adobe Illustrator 19.1.0, SVG Export Plug-In . SVG Version: 6.00 Build 0)  -->
<svg version="1.1" id="Layer_1" xmlns="http://www.w3.org/2000/svg" xmlns:xlink="http://www.w3.org/1999/xlink" x="0px" y="0px"
	 viewBox="-349 -50 300 300" style="enable-background:new -349 -50 300 300;" xml:space="preserve">
<style type="text/css">
	.st0{fill:#091641;}
</style>
<g>
	<path class="st0" d="M-220.3,142.5c0,0-2.9-0.1-7.7-0.6c-2.2-0.2-4.8-0.5-6.5-1c-1.1-0.2-3.3-0.6-6.2-1.4c-2.9-0.6-6.4-1.6-9.9-2.9
		c-2.2-0.7-4.5-1.7-6.7-2.7c-2.2-1-4.4-2-6.5-3.2c-5.3-2.9-10.6-6.6-15.2-10.9c-4.6-4.4-8.5-9.3-11.6-14.7
		c-2.5-4.5-4.3-9.5-5.4-14.6c-1.2-5.2-1.7-10.7-1.7-16.1v-0.6c0-5.4,0.5-11,1.7-16.1c1.2-5.2,3-10.1,5.4-14.6
		c3-5.6,7.1-10.5,11.6-14.7s9.8-8,15.2-10.9c2.1-1.2,4.3-2.2,6.5-3.2c2.2-1,4.5-1.9,6.7-2.7c3.5-1.3,7-2.1,9.9-2.9l0.2-0.1
		c1.7-0.4,3.4-0.7,5-1.1c0.4-0.1,0.7-0.1,1.1-0.2c0.9-0.2,2-0.3,3.2-0.5c6.3-1,11-1.1,11-1.1l0.1,7.4c-4.2,0.9-8.4,1.8-14.7,4
		l-1,0.3c-3.4,1.2-6.7,2.6-9.7,4.3c-3.5,2.1-7.2,4.5-10.4,7.4c-3.2,2.8-6.2,6-8.7,9.4c-2.2,3.2-4.2,6.7-5.7,10.4
		c-1.5,3.7-2.7,7.5-3.4,11.4c-0.4,2.2-0.7,4.5-1,6.7c-0.2,2.2-0.3,4.6-0.3,6.8v0.5c0,2.2,0.1,4.6,0.3,6.8c0.2,2.2,0.5,4.6,1,6.7
		c0.7,3.8,1.9,7.8,3.4,11.4c1.5,3.7,3.4,7.3,5.7,10.5c2.4,3.4,5.3,6.6,8.7,9.4c3.2,2.8,6.8,5.2,10.4,7.4c2.5,1.5,5.1,2.7,7.8,3.7
		c3.6,1.4,11.8,3.7,17.5,3.7L-220.3,142.5z M-177.9,142.5l-0.1-8.5c5.8,0,13.9-2.3,17.5-3.7c2.7-1.1,5.2-2.2,7.8-3.7
		c3.5-2,7.1-4.5,10.4-7.4c3.2-2.8,6.2-6,8.7-9.4c2.2-3.2,4.2-6.7,5.7-10.5c1.5-3.6,2.7-7.5,3.4-11.4c0.4-2.2,0.7-4.5,1-6.7
		c0.2-2.2,0.3-4.6,0.3-6.8v-0.6c0-2.2-0.1-4.6-0.3-6.8s-0.5-4.6-1-6.8c-0.7-3.8-1.8-7.7-3.4-11.4c-1.5-3.6-3.4-7.2-5.7-10.4
		c-2.3-3.4-5.3-6.6-8.7-9.4s-6.8-5.2-10.4-7.4c-3-1.7-6.3-3.1-9.7-4.3l-0.9-0.3c-6.4-2.2-10.6-3.1-14.8-4l0.1-7.4
		c0,0,4.7,0.1,11,1.1c1.3,0.1,2.3,0.3,3.2,0.5c0.3,0.1,0.6,0.1,1.1,0.2c1.7,0.3,3.3,0.6,5,1.1l0.2,0.1c2.9,0.6,6.3,1.6,9.9,2.9
		c2.2,0.9,4.6,1.7,6.7,2.7c2.2,1,4.4,2,6.5,3.2c5.3,2.9,10.6,6.6,15.2,10.9s8.5,9.3,11.6,14.7c2.5,4.5,4.3,9.5,5.4,14.6
		c1.2,5.2,1.7,10.7,1.7,16.1v0.6c0.1,5.4-0.5,11-1.7,16.1c-1.2,5.2-3,10.1-5.4,14.6c-3.1,5.4-7.1,10.5-11.6,14.7
		c-4.6,4.3-9.8,8-15.2,10.9c-2.1,1.2-4.3,2.2-6.5,3.2s-4.5,1.8-6.7,2.7c-3.5,1.3-7.1,2.2-9.9,2.9c-2.9,0.6-5.1,1.1-6.3,1.4
		c-1.8,0.3-4.4,0.6-6.5,1C-175,142.5-177.9,142.5-177.9,142.5 M-233.7,178.6v-7.7c19.7-1.6,21.4-6.1,21.4-23
		c-0.1,0-0.1-8.7-0.1-21.2c-0.1-26.8-0.2-71-0.2-99.7c0-14.5,0-24,0-24c0.3-15-0.5-18.6-20.2-19.9v-7.7h66.4v7.7
		c-17.6,1.2-19.3,5.4-19,20.1c0.1,0,0.1,9.4,0.1,23.8c0,28.5-0.1,72.7-0.2,99.6c0,12.4-0.1,21.2-0.2,21.2c0.3,16.2,1.2,21.4,20.2,23
		v7.7L-233.7,178.6L-233.7,178.6z M-74.8-45.7h-248.8v249h248.8V-45.7L-74.8-45.7z"/>
	<g>
		<path class="st0" d="M-86.6,231.4c0.9-2.2,1.6-4.6,2.6-6.9h0.1l2.3,6.9H-86.6z M-81.7,218.6l-1.6,0.4l-6.5,16.4
			c-1.1,2.7-1.5,3.3-3.5,3.5v0.9h7.2v-0.9c-2.3-0.3-2.3-1-1.9-2.5c0.4-1.3,0.7-2.5,1.2-3.4h6.2c0.4,1.3,1,2.7,1.3,3.6
			c0.5,1.4,0.3,2-1.5,2.3v0.9h9.1v-0.9c-2-0.2-2.5-0.9-3.5-3.7C-77.6,229.8-79.6,224.2-81.7,218.6"/>
		<path class="st0" d="M-205.1,231.4c0.9-2.2,1.6-4.6,2.6-6.9h0.1l2.4,6.9H-205.1z M-200.2,218.6l-1.6,0.4l-6.5,16.4
			c-1.1,2.7-1.5,3.3-3.5,3.5v0.9h7v-0.9c-2.3-0.3-2.3-1-1.9-2.5c0.4-1.3,0.7-2.5,1.2-3.4h6.2c0.4,1.3,1,2.7,1.3,3.6
			c0.5,1.4,0.3,2-1.5,2.3v0.9h9.1v-0.9c-2-0.2-2.5-0.9-3.5-3.7C-196.3,229.8-198.2,224.2-200.2,218.6"/>
		<path class="st0" d="M-125,239c-4.1,0-6.9-4.6-6.9-10c0-5.6,2.9-9,6.1-9l0,0c3.6,0,6.6,3.8,6.6,10.1C-119.1,236-122,239-125,239
			 M-125.2,218.8L-125.2,218.8c-7.4,0-11.1,5.2-11.1,10.7c0,6.1,4.3,10.7,10.7,10.7c6,0,10.8-4.1,10.8-11
			C-114.8,222.9-119.5,218.8-125.2,218.8"/>
		<path class="st0" d="M-290.7,239c-4.1,0-6.8-4.6-6.8-10c0-5.6,2.9-9,6.1-9l0,0c3.6,0,6.6,3.8,6.6,10.1
			C-284.8,236-287.6,239-290.7,239 M-290.8,218.8L-290.8,218.8c-7.4,0-11.1,5.2-11.1,10.7c0,6.1,4.3,10.7,10.7,10.7
			c6,0,10.8-4.1,10.8-11C-280.4,222.9-285,218.8-290.8,218.8"/>
		<path class="st0" d="M-155.9,235.4c-0.5,0-1.4,0-2.6-0.3c-1.9-0.4-4.1-2.1-4.1-6c0-4.1,2-6,4.4-6.5l0,0c0.5-0.1,1.2-0.1,1.7-0.1
			c0.2,0,0.3,0,0.4,0v1.6v10.5L-155.9,235.4L-155.9,235.4z M-151.7,235.4v-1c0-2.8,0-7.6,0-10.5v-1.6c0.1,0,0.3,0,0.4,0
			c0.5,0,1.1,0,1.6,0.1l0,0c2.3,0.5,4.5,2.6,4.5,6.5c0,3.8-2.1,5.6-4.1,6C-150.3,235.4-151.2,235.4-151.7,235.4 M-149.6,218.8h-8.5
			v0.9c2.2,0.1,2.2,0.4,2.2,1.9c-0.1,0-0.3,0-0.4,0c-0.6,0-1.4,0-1.9,0.1c-4.3,0.4-8.7,2.1-8.7,7.5c0,5.3,4.4,7.1,8.4,7.4
			c0,0,0.7,0.1,1.6,0.1c0.3,0,0.6,0,1,0v0.1c0,1.7-0.2,2.1-2.3,2.2v0.9h8.8V239c-2.1-0.1-2.2-0.6-2.2-2.2v-0.1c0.2,0,0.5,0,0.7,0
			c0.9,0,1.6-0.1,1.6-0.1c4.2-0.4,8.5-2,8.5-7.4c0-5.3-4.4-7.1-8.7-7.5c-0.4,0-1.1-0.1-1.7-0.1c-0.1,0-0.3,0-0.4,0
			c0-1.5,0.1-1.8,2.1-1.9L-149.6,218.8L-149.6,218.8z"/>
		<path class="st0" d="M-228.3,235.4c-0.5,0-1.4,0-2.6-0.3c-1.9-0.4-4.1-2.1-4.1-6c0-4.1,2-6,4.5-6.5l0,0c0.5-0.1,1.2-0.1,1.7-0.1
			c0.1,0,0.3,0,0.4,0v1.6c0,2.9,0,7.7,0,10.5v0.8H-228.3z M-224.1,235.4v-1c0-2.8,0-7.6,0-10.5c0-0.6,0-1.2,0-1.6c0.1,0,0.3,0,0.4,0
			c0.5,0,1.1,0,1.6,0.1l0,0c2.4,0.5,4.4,2.6,4.4,6.5c0,3.8-2.1,5.6-4.1,6C-222.8,235.4-223.6,235.4-224.1,235.4 M-222,218.8h-8.7
			v0.9c2.2,0.1,2.2,0.4,2.2,1.9c-0.1,0-0.3,0-0.4,0c-0.6,0-1.4,0-1.9,0.1c-4.3,0.4-8.7,2.1-8.7,7.5c0,5.3,4.4,7.1,8.5,7.4
			c0,0,0.7,0.1,1.6,0.1c0.3,0,0.6,0,1,0v0.1c0,1.7-0.2,2.1-2.3,2.2v0.9h8.8V239c-2.1-0.1-2.2-0.6-2.2-2.2v-0.1c0.2,0,0.5,0,0.9,0
			c0.9,0,1.6-0.1,1.6-0.1c4.2-0.4,8.4-2,8.4-7.4c0-5.3-4.4-7.1-8.7-7.5c-0.4,0-1.1-0.1-1.7-0.1c-0.1,0-0.3,0-0.4,0
			c0-1.5,0.2-1.8,2.1-1.9L-222,218.8L-222,218.8z"/>
		<path class="st0" d="M-102.9,230.5c-0.2,0-0.5,0-0.6,0v-8.9c0-0.5,0.1-1.1,0.3-1.2c0.2-0.2,0.5-0.3,1.2-0.3c1.9,0,4,1.4,4,5
			c0,0.5,0,0.9-0.1,1.3c-0.2,1.3-0.6,3.4-2.9,4C-101.6,230.5-102.4,230.5-102.9,230.5 M-101.5,219.1h-8.8v0.9
			c2.2,0.2,2.6,0.6,2.6,3.4v12.2c0,2.7-0.3,3.2-2.7,3.4v0.9h9.9V239c-2.8-0.2-3.1-0.7-3.1-3.4v-3.8c0.2,0,0.9,0.1,1.6,0.1
			c1.2,0,2.9-0.1,4.7-0.9c2.6-1,3.8-3,3.8-6c0-2-0.9-3.6-2.4-4.7C-97.1,219.4-99,219.1-101.5,219.1"/>
		<path class="st0" d="M-180.4,230.5c-0.2,0-0.5,0-0.6,0v-8.9c0-0.5,0.1-1.1,0.3-1.2c0.2-0.2,0.5-0.3,1.2-0.3c1.9,0,4,1.4,4,5
			c0,0.5,0,0.9-0.1,1.3c-0.2,1.3-0.6,3.4-2.9,4C-179.1,230.5-179.8,230.5-180.4,230.5 M-179,219.1h-8.8v0.9c2.2,0.2,2.5,0.6,2.5,3.4
			v12.2c0,2.7-0.3,3.2-2.7,3.4v0.9h9.9V239c-2.8-0.2-3-0.7-3-3.4v-3.8c0.2,0,0.7,0.1,1.5,0.1c1.2,0,2.9-0.1,4.6-0.9
			c2.6-1,3.8-3,3.8-6c0-2-0.9-3.6-2.4-4.7C-174.7,219.4-176.5,219.1-179,219.1"/>
		<path class="st0" d="M-251,219.1h-6.4l-6.3,14l-6.2-14h-6.6v0.9c2.8,0.2,3,1,2.7,4.6l-0.5,6.3c-0.2,3.3-0.5,4.9-0.6,6
			c-0.2,1.2-0.9,1.9-2.6,2.1v0.9h7.7V239c-2.1-0.2-2.8-0.7-2.9-2.1c-0.1-1-0.1-2.5,0-5.1l0.3-8.3h0.1l6.5,16.2h0.9l7.1-16.6h0.1
			l0.1,12.3c0,2.9-0.2,3.4-2.6,3.6v0.9h9.4V239c-2.5-0.2-2.7-0.7-2.7-3.6l-0.3-12c-0.1-2.7,0.1-3.2,2.6-3.4v-0.9H-251z"/>
		<path class="st0" d="M-320.1,238.4c-0.9,0-0.9-0.2-0.7-1c1.2-4.6,1.6-11.6,1.6-15.6c0-1.3,0-1.4,1.3-1.4h3.3
			c1.2,0,1.2,0.1,1.2,1.8v14.1c0,1.8-0.4,2-1.9,2L-320.1,238.4L-320.1,238.4z M-306.2,219.1H-324v0.9l1.2,0.2
			c1.8,0.2,1.9,0.9,1.9,2.2c0,8.3-1.2,13.2-2.2,15.5c-0.2,0.4-0.7,0.6-1.2,0.6h-1.8l-0.2,7.2h1.1l0.9-3c0.5-2.1,1.5-2.8,2.9-2.8
			h10.6c1.6,0,2.3,0.4,2.6,2.3l0.5,3.3h1.1l0.9-7.2h-2c-0.9,0-1-0.2-1-1.6v-13.1c0-3.2,0.2-3.5,2.8-3.7v-0.8H-306.2z"/>
	</g>
</g>
</svg>
